<?xml version="1.0" encoding="UTF-8" standalone="no"?>
<!DOCTYPE svg PUBLIC "-//W3C//DTD SVG 1.1//EN"
 "http://www.w3.org/Graphics/SVG/1.1/DTD/svg11.dtd">
<!-- Generated by graphviz version 2.44.1 (20200629.0846)
 -->
<!-- Title: dependencies Pages: 1 -->
<svg width="2483pt" height="211pt"
 viewBox="0.00 0.00 2483.00 211.00" xmlns="http://www.w3.org/2000/svg" xmlns:xlink="http://www.w3.org/1999/xlink">
<g id="graph0" class="graph" transform="scale(1 1) rotate(0) translate(4 207)">
<title>dependencies</title>
<polygon fill="white" stroke="transparent" points="-4,4 -4,-207 2479,-207 2479,4 -4,4"/>
<text text-anchor="start" x="1216.51" y="-42.4" font-family="sans-serif" font-weight="bold" font-size="14.00">Legend</text>
<polygon fill="#ffffb3" stroke="transparent" points="1003.5,-10 1003.5,-30 1023.5,-30 1023.5,-10 1003.5,-10"/>
<text text-anchor="start" x="1027.13" y="-15.4" font-family="sans-serif" font-size="14.00"> &#160;Declarations</text>
<polygon fill="#8dd3c7" stroke="transparent" points="1116.5,-10 1116.5,-30 1136.5,-30 1136.5,-10 1116.5,-10"/>
<text text-anchor="start" x="1140.23" y="-15.4" font-family="sans-serif" font-size="14.00"> &#160;Module</text>
<polygon fill="#80b1d3" stroke="transparent" points="1202.5,-10 1202.5,-30 1222.5,-30 1222.5,-10 1202.5,-10"/>
<text text-anchor="start" x="1226.28" y="-15.4" font-family="sans-serif" font-size="14.00"> &#160;Bootstrap</text>
<polygon fill="#fdb462" stroke="transparent" points="1299.5,-10 1299.5,-30 1319.5,-30 1319.5,-10 1299.5,-10"/>
<text text-anchor="start" x="1323.17" y="-15.4" font-family="sans-serif" font-size="14.00"> &#160;Providers</text>
<polygon fill="#fb8072" stroke="transparent" points="1395.5,-10 1395.5,-30 1415.5,-30 1415.5,-10 1395.5,-10"/>
<text text-anchor="start" x="1419.23" y="-15.4" font-family="sans-serif" font-size="14.00"> &#160;Exports</text>
<g id="clust1" class="cluster">
<title>cluster_DefaultModule</title>
<polygon fill="none" stroke="black" stroke-dasharray="1,5" points="8,-70 8,-195 2467,-195 2467,-70 8,-70"/>
</g>
<g id="clust16" class="cluster">
<title>cluster_DefaultModule_imports</title>
<polygon fill="none" stroke="black" points="2345,-78 2345,-130 2459,-130 2459,-78 2345,-78"/>
</g>
<g id="clust19" class="cluster">
<title>cluster_DefaultModule_providers</title>
<polygon fill="none" stroke="black" points="2107,-78 2107,-130 2337,-130 2337,-78 2107,-78"/>
</g>
<g id="clust2" class="cluster">
<title>cluster_DefaultModule_declarations</title>
<polygon fill="none" stroke="black" points="16,-78 16,-130 2099,-130 2099,-78 16,-78"/>
</g>
<!-- CourseDialogComponent -->
<g id="node1" class="node">
<title>CourseDialogComponent</title>
<polygon fill="#ffffb3" stroke="black" points="2090.59,-122 1931.41,-122 1931.41,-86 2090.59,-86 2090.59,-122"/>
<text text-anchor="middle" x="2011" y="-99.8" font-family="Times,serif" font-size="14.00">CourseDialogComponent</text>
</g>
<!-- DefaultModule -->
<g id="node14" class="node">
<title>DefaultModule</title>
<polygon fill="#8dd3c7" stroke="black" points="1297.53,-187 1294.53,-191 1273.53,-191 1270.53,-187 1196.47,-187 1196.47,-151 1297.53,-151 1297.53,-187"/>
<text text-anchor="middle" x="1247" y="-164.8" font-family="Times,serif" font-size="14.00">DefaultModule</text>
</g>
<!-- CourseDialogComponent&#45;&gt;DefaultModule -->
<g id="edge1" class="edge">
<title>CourseDialogComponent&#45;&gt;DefaultModule</title>
<path fill="none" stroke="black" d="M2011,-122.03C2011,-142.77 2011,-174 2011,-174 2011,-174 1307.72,-174 1307.72,-174"/>
<polygon fill="black" stroke="black" points="1307.72,-170.5 1297.72,-174 1307.72,-177.5 1307.72,-170.5"/>
</g>
<!-- DashboardComponent -->
<g id="node2" class="node">
<title>DashboardComponent</title>
<polygon fill="#ffffb3" stroke="black" points="1912.97,-122 1771.03,-122 1771.03,-86 1912.97,-86 1912.97,-122"/>
<text text-anchor="middle" x="1842" y="-99.8" font-family="Times,serif" font-size="14.00">DashboardComponent</text>
</g>
<!-- DashboardComponent&#45;&gt;DefaultModule -->
<g id="edge2" class="edge">
<title>DashboardComponent&#45;&gt;DefaultModule</title>
<path fill="none" stroke="black" d="M1842,-122.11C1842,-141.34 1842,-169 1842,-169 1842,-169 1307.73,-169 1307.73,-169"/>
<polygon fill="black" stroke="black" points="1307.73,-165.5 1297.73,-169 1307.73,-172.5 1307.73,-165.5"/>
</g>
<!-- DefaultComponent -->
<g id="node3" class="node">
<title>DefaultComponent</title>
<polygon fill="#ffffb3" stroke="black" points="1752.81,-122 1629.19,-122 1629.19,-86 1752.81,-86 1752.81,-122"/>
<text text-anchor="middle" x="1691" y="-99.8" font-family="Times,serif" font-size="14.00">DefaultComponent</text>
</g>
<!-- DefaultComponent&#45;&gt;DefaultModule -->
<g id="edge3" class="edge">
<title>DefaultComponent&#45;&gt;DefaultModule</title>
<path fill="none" stroke="black" d="M1691,-122.3C1691,-140.27 1691,-165 1691,-165 1691,-165 1307.93,-165 1307.93,-165"/>
<polygon fill="black" stroke="black" points="1307.93,-161.5 1297.93,-165 1307.93,-168.5 1307.93,-161.5"/>
</g>
<!-- InventoryComponent -->
<g id="node4" class="node">
<title>InventoryComponent</title>
<polygon fill="#ffffb3" stroke="black" points="1610.76,-122 1475.24,-122 1475.24,-86 1610.76,-86 1610.76,-122"/>
<text text-anchor="middle" x="1543" y="-99.8" font-family="Times,serif" font-size="14.00">InventoryComponent</text>
</g>
<!-- InventoryComponent&#45;&gt;DefaultModule -->
<g id="edge4" class="edge">
<title>InventoryComponent&#45;&gt;DefaultModule</title>
<path fill="none" stroke="black" d="M1543,-122.03C1543,-138.4 1543,-160 1543,-160 1543,-160 1307.55,-160 1307.55,-160"/>
<polygon fill="black" stroke="black" points="1307.55,-156.5 1297.55,-160 1307.55,-163.5 1307.55,-156.5"/>
</g>
<!-- LoginComponent -->
<g id="node5" class="node">
<title>LoginComponent</title>
<polygon fill="#ffffb3" stroke="black" points="1457.28,-122 1342.72,-122 1342.72,-86 1457.28,-86 1457.28,-122"/>
<text text-anchor="middle" x="1400" y="-99.8" font-family="Times,serif" font-size="14.00">LoginComponent</text>
</g>
<!-- LoginComponent&#45;&gt;DefaultModule -->
<g id="edge5" class="edge">
<title>LoginComponent&#45;&gt;DefaultModule</title>
<path fill="none" stroke="black" d="M1400,-122.19C1400,-137.18 1400,-156 1400,-156 1400,-156 1307.95,-156 1307.95,-156"/>
<polygon fill="black" stroke="black" points="1307.95,-152.5 1297.95,-156 1307.95,-159.5 1307.95,-152.5"/>
</g>
<!-- ManagementComponent -->
<g id="node6" class="node">
<title>ManagementComponent</title>
<polygon fill="#ffffb3" stroke="black" points="1324.42,-122 1169.58,-122 1169.58,-86 1324.42,-86 1324.42,-122"/>
<text text-anchor="middle" x="1247" y="-99.8" font-family="Times,serif" font-size="14.00">ManagementComponent</text>
</g>
<!-- ManagementComponent&#45;&gt;DefaultModule -->
<g id="edge6" class="edge">
<title>ManagementComponent&#45;&gt;DefaultModule</title>
<path fill="none" stroke="black" d="M1247,-122.11C1247,-122.11 1247,-140.99 1247,-140.99"/>
<polygon fill="black" stroke="black" points="1243.5,-140.99 1247,-150.99 1250.5,-140.99 1243.5,-140.99"/>
</g>
<!-- PointOfSaleComponent -->
<g id="node7" class="node">
<title>PointOfSaleComponent</title>
<polygon fill="#ffffb3" stroke="black" points="1151.77,-122 1002.23,-122 1002.23,-86 1151.77,-86 1151.77,-122"/>
<text text-anchor="middle" x="1077" y="-99.8" font-family="Times,serif" font-size="14.00">PointOfSaleComponent</text>
</g>
<!-- PointOfSaleComponent&#45;&gt;DefaultModule -->
<g id="edge7" class="edge">
<title>PointOfSaleComponent&#45;&gt;DefaultModule</title>
<path fill="none" stroke="black" d="M1077,-122.19C1077,-137.18 1077,-156 1077,-156 1077,-156 1186.45,-156 1186.45,-156"/>
<polygon fill="black" stroke="black" points="1186.45,-159.5 1196.45,-156 1186.45,-152.5 1186.45,-159.5"/>
</g>
<!-- RegisterComponent -->
<g id="node8" class="node">
<title>RegisterComponent</title>
<polygon fill="#ffffb3" stroke="black" points="983.98,-122 856.02,-122 856.02,-86 983.98,-86 983.98,-122"/>
<text text-anchor="middle" x="920" y="-99.8" font-family="Times,serif" font-size="14.00">RegisterComponent</text>
</g>
<!-- RegisterComponent&#45;&gt;DefaultModule -->
<g id="edge8" class="edge">
<title>RegisterComponent&#45;&gt;DefaultModule</title>
<path fill="none" stroke="black" d="M920,-122.03C920,-138.4 920,-160 920,-160 920,-160 1186.27,-160 1186.27,-160"/>
<polygon fill="black" stroke="black" points="1186.27,-163.5 1196.27,-160 1186.26,-156.5 1186.27,-163.5"/>
</g>
<!-- SettingsComponent -->
<g id="node9" class="node">
<title>SettingsComponent</title>
<polygon fill="#ffffb3" stroke="black" points="838.45,-122 711.55,-122 711.55,-86 838.45,-86 838.45,-122"/>
<text text-anchor="middle" x="775" y="-99.8" font-family="Times,serif" font-size="14.00">SettingsComponent</text>
</g>
<!-- SettingsComponent&#45;&gt;DefaultModule -->
<g id="edge9" class="edge">
<title>SettingsComponent&#45;&gt;DefaultModule</title>
<path fill="none" stroke="black" d="M775,-122.3C775,-140.27 775,-165 775,-165 775,-165 1186.04,-165 1186.04,-165"/>
<polygon fill="black" stroke="black" points="1186.04,-168.5 1196.04,-165 1186.04,-161.5 1186.04,-168.5"/>
</g>
<!-- SuccessDialogComponent -->
<g id="node10" class="node">
<title>SuccessDialogComponent</title>
<polygon fill="#ffffb3" stroke="black" points="693.75,-122 530.25,-122 530.25,-86 693.75,-86 693.75,-122"/>
<text text-anchor="middle" x="612" y="-99.8" font-family="Times,serif" font-size="14.00">SuccessDialogComponent</text>
</g>
<!-- SuccessDialogComponent&#45;&gt;DefaultModule -->
<g id="edge10" class="edge">
<title>SuccessDialogComponent&#45;&gt;DefaultModule</title>
<path fill="none" stroke="black" d="M612,-122.11C612,-141.34 612,-169 612,-169 612,-169 1186.38,-169 1186.38,-169"/>
<polygon fill="black" stroke="black" points="1186.38,-172.5 1196.38,-169 1186.38,-165.5 1186.38,-172.5"/>
</g>
<!-- TransactionDialogComponent -->
<g id="node11" class="node">
<title>TransactionDialogComponent</title>
<polygon fill="#ffffb3" stroke="black" points="511.52,-122 326.48,-122 326.48,-86 511.52,-86 511.52,-122"/>
<text text-anchor="middle" x="419" y="-99.8" font-family="Times,serif" font-size="14.00">TransactionDialogComponent</text>
</g>
<!-- TransactionDialogComponent&#45;&gt;DefaultModule -->
<g id="edge11" class="edge">
<title>TransactionDialogComponent&#45;&gt;DefaultModule</title>
<path fill="none" stroke="black" d="M419,-122.03C419,-142.77 419,-174 419,-174 419,-174 1186.45,-174 1186.45,-174"/>
<polygon fill="black" stroke="black" points="1186.45,-177.5 1196.45,-174 1186.45,-170.5 1186.45,-177.5"/>
</g>
<!-- TransactionsComponent -->
<g id="node12" class="node">
<title>TransactionsComponent</title>
<polygon fill="#ffffb3" stroke="black" points="308.36,-122 155.64,-122 155.64,-86 308.36,-86 308.36,-122"/>
<text text-anchor="middle" x="232" y="-99.8" font-family="Times,serif" font-size="14.00">TransactionsComponent</text>
</g>
<!-- TransactionsComponent&#45;&gt;DefaultModule -->
<g id="edge12" class="edge">
<title>TransactionsComponent&#45;&gt;DefaultModule</title>
<path fill="none" stroke="black" d="M232,-122.29C232,-144.21 232,-178 232,-178 232,-178 1186.32,-178 1186.32,-178"/>
<polygon fill="black" stroke="black" points="1186.32,-181.5 1196.32,-178 1186.32,-174.5 1186.32,-181.5"/>
</g>
<!-- UsersComponent -->
<g id="node13" class="node">
<title>UsersComponent</title>
<polygon fill="#ffffb3" stroke="black" points="137.7,-122 24.3,-122 24.3,-86 137.7,-86 137.7,-122"/>
<text text-anchor="middle" x="81" y="-99.8" font-family="Times,serif" font-size="14.00">UsersComponent</text>
</g>
<!-- UsersComponent&#45;&gt;DefaultModule -->
<g id="edge13" class="edge">
<title>UsersComponent&#45;&gt;DefaultModule</title>
<path fill="none" stroke="black" d="M81,-122.32C81,-145.66 81,-183 81,-183 81,-183 1186.15,-183 1186.15,-183"/>
<polygon fill="black" stroke="black" points="1186.15,-186.5 1196.15,-183 1186.15,-179.5 1186.15,-186.5"/>
</g>
<!-- SharedModule -->
<g id="node15" class="node">
<title>SharedModule</title>
<polygon fill="#8dd3c7" stroke="black" points="2451.42,-122 2448.42,-126 2427.42,-126 2424.42,-122 2352.58,-122 2352.58,-86 2451.42,-86 2451.42,-122"/>
<text text-anchor="middle" x="2402" y="-99.8" font-family="Times,serif" font-size="14.00">SharedModule</text>
</g>
<!-- SharedModule&#45;&gt;DefaultModule -->
<g id="edge14" class="edge">
<title>SharedModule&#45;&gt;DefaultModule</title>
<path fill="none" stroke="black" d="M2402,-122.32C2402,-145.66 2402,-183 2402,-183 2402,-183 1307.74,-183 1307.74,-183"/>
<polygon fill="black" stroke="black" points="1307.74,-179.5 1297.74,-183 1307.74,-186.5 1307.74,-179.5"/>
</g>
<!-- TokenInterceptorService -->
<g id="node16" class="node">
<title>TokenInterceptorService</title>
<ellipse fill="#fdb462" stroke="black" cx="2222" cy="-104" rx="107.04" ry="18"/>
<text text-anchor="middle" x="2222" y="-99.8" font-family="Times,serif" font-size="14.00">TokenInterceptorService</text>
</g>
<!-- TokenInterceptorService&#45;&gt;DefaultModule -->
<g id="edge15" class="edge">
<title>TokenInterceptorService&#45;&gt;DefaultModule</title>
<path fill="none" stroke="black" d="M2222,-122.29C2222,-144.21 2222,-178 2222,-178 2222,-178 1307.71,-178 1307.71,-178"/>
<polygon fill="black" stroke="black" points="1307.71,-174.5 1297.71,-178 1307.71,-181.5 1307.71,-174.5"/>
</g>
</g>
</svg>
