<?xml version="1.0" encoding="UTF-8" standalone="no"?>
<!DOCTYPE svg PUBLIC "-//W3C//DTD SVG 1.1//EN"
 "http://www.w3.org/Graphics/SVG/1.1/DTD/svg11.dtd">
<!-- Generated by graphviz version 2.44.1 (20200629.0846)
 -->
<!-- Title: dependencies Pages: 1 -->
<svg width="504pt" height="284pt"
 viewBox="0.00 0.00 504.00 284.00" xmlns="http://www.w3.org/2000/svg" xmlns:xlink="http://www.w3.org/1999/xlink">
<g id="graph0" class="graph" transform="scale(1 1) rotate(0) translate(4 280)">
<title>dependencies</title>
<polygon fill="white" stroke="transparent" points="-4,4 -4,-280 500,-280 500,4 -4,4"/>
<text text-anchor="start" x="227.01" y="-42.4" font-family="sans-serif" font-weight="bold" font-size="14.00">Legend</text>
<polygon fill="#ffffb3" stroke="transparent" points="14,-10 14,-30 34,-30 34,-10 14,-10"/>
<text text-anchor="start" x="37.63" y="-15.4" font-family="sans-serif" font-size="14.00"> &#160;Declarations</text>
<polygon fill="#8dd3c7" stroke="transparent" points="127,-10 127,-30 147,-30 147,-10 127,-10"/>
<text text-anchor="start" x="150.73" y="-15.4" font-family="sans-serif" font-size="14.00"> &#160;Module</text>
<polygon fill="#80b1d3" stroke="transparent" points="213,-10 213,-30 233,-30 233,-10 213,-10"/>
<text text-anchor="start" x="236.78" y="-15.4" font-family="sans-serif" font-size="14.00"> &#160;Bootstrap</text>
<polygon fill="#fdb462" stroke="transparent" points="310,-10 310,-30 330,-30 330,-10 310,-10"/>
<text text-anchor="start" x="333.67" y="-15.4" font-family="sans-serif" font-size="14.00"> &#160;Providers</text>
<polygon fill="#fb8072" stroke="transparent" points="406,-10 406,-30 426,-30 426,-10 406,-10"/>
<text text-anchor="start" x="429.73" y="-15.4" font-family="sans-serif" font-size="14.00"> &#160;Exports</text>
<g id="clust1" class="cluster">
<title>cluster_SharedModule</title>
<polygon fill="none" stroke="black" stroke-dasharray="1,5" points="27,-70 27,-268 469,-268 469,-70 27,-70"/>
</g>
<g id="clust2" class="cluster">
<title>cluster_SharedModule_declarations</title>
<polygon fill="none" stroke="black" points="40,-78 40,-130 456,-130 456,-78 40,-78"/>
</g>
<g id="clust7" class="cluster">
<title>cluster_SharedModule_exports</title>
<polygon fill="none" stroke="black" points="35,-208 35,-260 461,-260 461,-208 35,-208"/>
</g>
<!-- FooterComponent -->
<g id="node1" class="node">
<title>FooterComponent</title>
<polygon fill="#ffffb3" stroke="black" points="447.88,-122 330.12,-122 330.12,-86 447.88,-86 447.88,-122"/>
<text text-anchor="middle" x="389" y="-99.8" font-family="Times,serif" font-size="14.00">FooterComponent</text>
</g>
<!-- SharedModule -->
<g id="node4" class="node">
<title>SharedModule</title>
<polygon fill="#8dd3c7" stroke="black" points="300.42,-187 297.42,-191 276.42,-191 273.42,-187 201.58,-187 201.58,-151 300.42,-151 300.42,-187"/>
<text text-anchor="middle" x="251" y="-164.8" font-family="Times,serif" font-size="14.00">SharedModule</text>
</g>
<!-- FooterComponent&#45;&gt;SharedModule -->
<g id="edge1" class="edge">
<title>FooterComponent&#45;&gt;SharedModule</title>
<path fill="none" stroke="black" d="M409.06,-122.02C409.06,-139.37 409.06,-163 409.06,-163 409.06,-163 310.58,-163 310.58,-163"/>
<polygon fill="black" stroke="black" points="310.58,-159.5 300.58,-163 310.58,-166.5 310.58,-159.5"/>
</g>
<!-- HeaderComponent -->
<g id="node2" class="node">
<title>HeaderComponent</title>
<polygon fill="#ffffb3" stroke="black" points="311.74,-122 190.26,-122 190.26,-86 311.74,-86 311.74,-122"/>
<text text-anchor="middle" x="251" y="-99.8" font-family="Times,serif" font-size="14.00">HeaderComponent</text>
</g>
<!-- HeaderComponent&#45;&gt;SharedModule -->
<g id="edge2" class="edge">
<title>HeaderComponent&#45;&gt;SharedModule</title>
<path fill="none" stroke="black" d="M251,-122.11C251,-122.11 251,-140.99 251,-140.99"/>
<polygon fill="black" stroke="black" points="247.5,-140.99 251,-150.99 254.5,-140.99 247.5,-140.99"/>
</g>
<!-- SidebarComponent -->
<g id="node3" class="node">
<title>SidebarComponent</title>
<polygon fill="#ffffb3" stroke="black" points="172.1,-122 47.9,-122 47.9,-86 172.1,-86 172.1,-122"/>
<text text-anchor="middle" x="110" y="-99.8" font-family="Times,serif" font-size="14.00">SidebarComponent</text>
</g>
<!-- SidebarComponent&#45;&gt;SharedModule -->
<g id="edge3" class="edge">
<title>SidebarComponent&#45;&gt;SharedModule</title>
<path fill="none" stroke="black" d="M129.85,-122.02C129.85,-139.37 129.85,-163 129.85,-163 129.85,-163 191.72,-163 191.72,-163"/>
<polygon fill="black" stroke="black" points="191.72,-166.5 201.72,-163 191.72,-159.5 191.72,-166.5"/>
</g>
<!-- FooterComponent  -->
<g id="node5" class="node">
<title>FooterComponent </title>
<polygon fill="#fb8072" stroke="black" points="452.88,-252 331.12,-252 331.12,-216 452.88,-216 452.88,-252"/>
<text text-anchor="middle" x="392" y="-229.8" font-family="Times,serif" font-size="14.00">FooterComponent </text>
</g>
<!-- SharedModule&#45;&gt;FooterComponent  -->
<g id="edge4" class="edge">
<title>SharedModule&#45;&gt;FooterComponent </title>
<path fill="none" stroke="black" stroke-dasharray="5,2" d="M300.51,-175C333.26,-175 370.19,-175 370.19,-175 370.19,-175 370.19,-205.98 370.19,-205.98"/>
<polygon fill="black" stroke="black" points="366.69,-205.98 370.19,-215.98 373.69,-205.98 366.69,-205.98"/>
</g>
<!-- HeaderComponent  -->
<g id="node6" class="node">
<title>HeaderComponent </title>
<polygon fill="#fb8072" stroke="black" points="313.74,-252 188.26,-252 188.26,-216 313.74,-216 313.74,-252"/>
<text text-anchor="middle" x="251" y="-229.8" font-family="Times,serif" font-size="14.00">HeaderComponent </text>
</g>
<!-- SharedModule&#45;&gt;HeaderComponent  -->
<g id="edge5" class="edge">
<title>SharedModule&#45;&gt;HeaderComponent </title>
<path fill="none" stroke="black" stroke-dasharray="5,2" d="M251,-187.11C251,-187.11 251,-205.99 251,-205.99"/>
<polygon fill="black" stroke="black" points="247.5,-205.99 251,-215.99 254.5,-205.99 247.5,-205.99"/>
</g>
<!-- SidebarComponent  -->
<g id="node7" class="node">
<title>SidebarComponent </title>
<polygon fill="#fb8072" stroke="black" points="170.6,-252 43.4,-252 43.4,-216 170.6,-216 170.6,-252"/>
<text text-anchor="middle" x="107" y="-229.8" font-family="Times,serif" font-size="14.00">SidebarComponent </text>
</g>
<!-- SharedModule&#45;&gt;SidebarComponent  -->
<g id="edge6" class="edge">
<title>SharedModule&#45;&gt;SidebarComponent </title>
<path fill="none" stroke="black" stroke-dasharray="5,2" d="M201.48,-175C153.81,-175 88.9,-175 88.9,-175 88.9,-175 88.9,-205.98 88.9,-205.98"/>
<polygon fill="black" stroke="black" points="85.4,-205.98 88.9,-215.98 92.4,-205.98 85.4,-205.98"/>
</g>
</g>
</svg>
