<?xml version="1.0" encoding="UTF-8" standalone="no"?>
<!DOCTYPE svg PUBLIC "-//W3C//DTD SVG 1.1//EN"
 "http://www.w3.org/Graphics/SVG/1.1/DTD/svg11.dtd">
<!-- Generated by graphviz version 2.44.1 (20200629.0846)
 -->
<!-- Title: dependencies Pages: 1 -->
<svg width="504pt" height="284pt"
 viewBox="0.00 0.00 504.00 284.00" xmlns="http://www.w3.org/2000/svg" xmlns:xlink="http://www.w3.org/1999/xlink">
<g id="graph0" class="graph" transform="scale(1 1) rotate(0) translate(4 280)">
<title>dependencies</title>
<polygon fill="white" stroke="transparent" points="-4,4 -4,-280 500,-280 500,4 -4,4"/>
<text text-anchor="start" x="227.01" y="-42.4" font-family="sans-serif" font-weight="bold" font-size="14.00">Legend</text>
<polygon fill="#ffffb3" stroke="transparent" points="14,-10 14,-30 34,-30 34,-10 14,-10"/>
<text text-anchor="start" x="37.63" y="-15.4" font-family="sans-serif" font-size="14.00"> &#160;Declarations</text>
<polygon fill="#8dd3c7" stroke="transparent" points="127,-10 127,-30 147,-30 147,-10 127,-10"/>
<text text-anchor="start" x="150.73" y="-15.4" font-family="sans-serif" font-size="14.00"> &#160;Module</text>
<polygon fill="#80b1d3" stroke="transparent" points="213,-10 213,-30 233,-30 233,-10 213,-10"/>
<text text-anchor="start" x="236.78" y="-15.4" font-family="sans-serif" font-size="14.00"> &#160;Bootstrap</text>
<polygon fill="#fdb462" stroke="transparent" points="310,-10 310,-30 330,-30 330,-10 310,-10"/>
<text text-anchor="start" x="333.67" y="-15.4" font-family="sans-serif" font-size="14.00"> &#160;Providers</text>
<polygon fill="#fb8072" stroke="transparent" points="406,-10 406,-30 426,-30 426,-10 406,-10"/>
<text text-anchor="start" x="429.73" y="-15.4" font-family="sans-serif" font-size="14.00"> &#160;Exports</text>
<g id="clust1" class="cluster">
<title>cluster_AppModule</title>
<polygon fill="none" stroke="black" stroke-dasharray="1,5" points="43,-70 43,-268 453,-268 453,-70 43,-70"/>
</g>
<g id="clust4" class="cluster">
<title>cluster_AppModule_imports</title>
<polygon fill="none" stroke="black" points="181,-78 181,-130 445,-130 445,-78 181,-78"/>
</g>
<g id="clust6" class="cluster">
<title>cluster_AppModule_bootstrap</title>
<polygon fill="none" stroke="black" points="178,-208 178,-260 302,-260 302,-208 178,-208"/>
</g>
<g id="clust2" class="cluster">
<title>cluster_AppModule_declarations</title>
<polygon fill="none" stroke="black" points="51,-78 51,-130 173,-130 173,-78 51,-78"/>
</g>
<!-- AppComponent -->
<g id="node1" class="node">
<title>AppComponent</title>
<polygon fill="#ffffb3" stroke="black" points="164.94,-122 59.06,-122 59.06,-86 164.94,-86 164.94,-122"/>
<text text-anchor="middle" x="112" y="-99.8" font-family="Times,serif" font-size="14.00">AppComponent</text>
</g>
<!-- AppModule -->
<g id="node2" class="node">
<title>AppModule</title>
<polygon fill="#8dd3c7" stroke="black" points="281.66,-187 278.66,-191 257.66,-191 254.66,-187 198.34,-187 198.34,-151 281.66,-151 281.66,-187"/>
<text text-anchor="middle" x="240" y="-164.8" font-family="Times,serif" font-size="14.00">AppModule</text>
</g>
<!-- AppComponent&#45;&gt;AppModule -->
<g id="edge1" class="edge">
<title>AppComponent&#45;&gt;AppModule</title>
<path fill="none" stroke="black" d="M112,-122.11C112,-141.34 112,-169 112,-169 112,-169 188.09,-169 188.09,-169"/>
<polygon fill="black" stroke="black" points="188.09,-172.5 198.09,-169 188.09,-165.5 188.09,-172.5"/>
</g>
<!-- AppComponent  -->
<g id="node5" class="node">
<title>AppComponent </title>
<polygon fill="#80b1d3" stroke="black" points="294.44,-252 185.56,-252 185.56,-216 294.44,-216 294.44,-252"/>
<text text-anchor="middle" x="240" y="-229.8" font-family="Times,serif" font-size="14.00">AppComponent </text>
</g>
<!-- AppModule&#45;&gt;AppComponent  -->
<g id="edge4" class="edge">
<title>AppModule&#45;&gt;AppComponent </title>
<path fill="none" stroke="black" stroke-dasharray="1,5" d="M240,-187.11C240,-187.11 240,-205.99 240,-205.99"/>
<polygon fill="black" stroke="black" points="236.5,-205.99 240,-215.99 243.5,-205.99 236.5,-205.99"/>
</g>
<!-- AppRoutingModule -->
<g id="node3" class="node">
<title>AppRoutingModule</title>
<polygon fill="#8dd3c7" stroke="black" points="437.27,-122 434.27,-126 413.27,-126 410.27,-122 308.73,-122 308.73,-86 437.27,-86 437.27,-122"/>
<text text-anchor="middle" x="373" y="-99.8" font-family="Times,serif" font-size="14.00">AppRoutingModule</text>
</g>
<!-- AppRoutingModule&#45;&gt;AppModule -->
<g id="edge2" class="edge">
<title>AppRoutingModule&#45;&gt;AppModule</title>
<path fill="none" stroke="black" d="M373,-122.11C373,-141.34 373,-169 373,-169 373,-169 291.72,-169 291.72,-169"/>
<polygon fill="black" stroke="black" points="291.72,-165.5 281.72,-169 291.72,-172.5 291.72,-165.5"/>
</g>
<!-- DefaultModule -->
<g id="node4" class="node">
<title>DefaultModule</title>
<polygon fill="#8dd3c7" stroke="black" points="290.53,-122 287.53,-126 266.53,-126 263.53,-122 189.47,-122 189.47,-86 290.53,-86 290.53,-122"/>
<text text-anchor="middle" x="240" y="-99.8" font-family="Times,serif" font-size="14.00">DefaultModule</text>
</g>
<!-- DefaultModule&#45;&gt;AppModule -->
<g id="edge3" class="edge">
<title>DefaultModule&#45;&gt;AppModule</title>
<path fill="none" stroke="black" d="M240,-122.11C240,-122.11 240,-140.99 240,-140.99"/>
<polygon fill="black" stroke="black" points="236.5,-140.99 240,-150.99 243.5,-140.99 236.5,-140.99"/>
</g>
</g>
</svg>
